<svg width="15" height="16" viewBox="0 0 15 16" version="1.1" xmlns="http://www.w3.org/2000/svg" xmlns:xlink="http://www.w3.org/1999/xlink">
<title>Shape</title>
<desc>Created using Figma</desc>
<g id="Canvas" transform="translate(-304 953)">
<g id="Shape" opacity="0.64">
<use xlink:href="#path0_fill" transform="translate(304.146 -952.853)" fill="#484848"/>
</g>
</g>
<defs>
<path id="path0_fill" fill-rule="evenodd" d="M 10.9611 10.9837L 14.4321 14.462C 14.6404 14.6707 14.571 15.0185 14.3627 15.2272C 14.1544 15.4359 13.8073 15.4359 13.5991 15.2272L 10.128 11.7489L 10.128 11.6793C 8.87842 12.6533 7.21228 13.1402 5.47675 12.8619C 2.00568 12.3054 -0.424072 9.10541 0.0618896 5.55762C 0.617249 2.00977 3.88007 -0.424988 7.35114 0.0619507C 10.8222 0.618469 13.252 3.81848 12.766 7.36633C 12.5577 8.82715 11.933 10.0098 10.9611 10.9837ZM 1.10318 5.69672C 0.686646 8.68805 2.76929 11.4011 5.685 11.8185C 8.60071 12.2358 11.3776 10.1489 11.7941 7.22717C 12.2106 4.23584 10.128 1.52283 7.21228 1.10541C 4.22714 0.688049 1.51971 2.77502 1.10318 5.69672Z"/>
</defs>
</svg>
