<?xml version="1.0" encoding="UTF-8"?>
<svg width="48px" height="48px" viewBox="0 0 48 48" version="1.1" xmlns="http://www.w3.org/2000/svg" xmlns:xlink="http://www.w3.org/1999/xlink">
    <!-- Generator: Sketch 47.1 (45422) - http://www.bohemiancoding.com/sketch -->
    <title>arrowscroll</title>
    <desc>Created with Sketch.</desc>
    <defs>
        <path d="M0,20 C0,8.9543 8.9543,0 20,0 C31.0457,0 40,8.95431 40,20 C40,31.0457 31.0457,40 20,40 C8.9543,40 0,31.0457 0,20 Z" id="path-1"></path>
        <filter x="-17.5%" y="-12.5%" width="135.0%" height="135.0%" filterUnits="objectBoundingBox" id="filter-3">
            <feOffset dx="0" dy="2" in="SourceAlpha" result="shadowOffsetOuter1"></feOffset>
            <feGaussianBlur stdDeviation="2" in="shadowOffsetOuter1" result="shadowBlurOuter1"></feGaussianBlur>
            <feComposite in="shadowBlurOuter1" in2="SourceAlpha" operator="out" result="shadowBlurOuter1"></feComposite>
            <feColorMatrix values="0 0 0 0 0.282352941   0 0 0 0 0.282352941   0 0 0 0 0.282352941  0 0 0 0.16 0" type="matrix" in="shadowBlurOuter1"></feColorMatrix>
        </filter>
    </defs>
    <g id="Page-1" stroke="none" stroke-width="1" fill="none" fill-rule="evenodd">
        <g id="arrowscroll" transform="translate(4.000000, 2.000000)">
            <mask id="mask-2" fill="white">
                <use xlink:href="#path-1"></use>
            </mask>
            <g id="path0_fill">
                <use fill="black" fill-opacity="1" filter="url(#filter-3)" xlink:href="#path-1"></use>
                <use fill="#FFFFFF" fill-rule="evenodd" xlink:href="#path-1"></use>
                <path stroke-opacity="0.03" stroke="#484848" stroke-width="1" d="M0.5,20 C0.5,30.7695576 9.23044237,39.5 20,39.5 C30.7695576,39.5 39.5,30.7695576 39.5,20 C39.5,9.23044888 30.7695541,0.5 20,0.5 C9.23044237,0.5 0.5,9.23044237 0.5,20 Z"></path>
            </g>
            <g id="right-ic20" mask="url(#mask-2)">
                <g transform="translate(16.000000, 11.000000)" id="Shape">
                    <g>
                        <g id="path2_fill-link" fill-rule="nonzero" fill="#000000">
                            <path d="M0.29272502,1.70723001 C0.0401386197,1.45446001 -0.0584124803,1.08614001 0.0341954197,0.741012008 C0.12680302,0.395883008 0.39650102,0.126376008 0.74169502,0.0340124083 C1.08689002,-0.0583513917 1.45514002,0.0404600083 1.70773002,0.293225008 L9.70273002,8.29323001 C10.0931,8.68373001 10.0931,9.31673001 9.70273002,9.70723001 L1.70773002,17.7072 C1.45514002,17.96 1.08689002,18.0588 0.74169502,17.9664 C0.39650102,17.8741 0.12680302,17.6046 0.0341954197,17.2594 C-0.0584124803,16.9143 0.0401386197,16.546 0.29272502,16.2932 L7.58273002,9.00023001 L0.29272502,1.70723001 Z" id="path2_fill"></path>
                        </g>
                    </g>
                </g>
            </g>
        </g>
    </g>
</svg>