<?xml version="1.0" encoding="UTF-8"?>
<svg width="24px" height="24px" viewBox="0 0 24 24" version="1.1" xmlns="http://www.w3.org/2000/svg" xmlns:xlink="http://www.w3.org/1999/xlink">
    <!-- Generator: Sketch 47.1 (45422) - http://www.bohemiancoding.com/sketch -->
    <title>Artboard</title>
    <desc>Created with Sketch.</desc>
    <defs></defs>
    <g id="Page-1" stroke="none" stroke-width="1" fill="none" fill-rule="evenodd">
        <g id="Artboard" fill-rule="nonzero">
            <g id="instagram">
                <rect id="Rectangle" fill="#000000" opacity="0" x="0" y="0" width="24" height="24"></rect>
                <path d="M16.0326,3 L7.96729,3 C5.22827,3 3,5.22839 3,7.96741 L3,16.0326 C3,18.7717 5.22827,21 7.96729,21 L16.0326,21 C18.7717,21 21,18.7716 21,16.0326 L21,7.96741 C21.0001,5.22839 18.7717,3 16.0326,3 Z M20.0001,16.3579 C20.0001,18.3662 18.3662,20 16.3579,20 L7.64197,20 C5.63379,20.0001 4,18.3662 4,16.3579 L4,7.64209 C4,5.63391 5.63379,4 7.64197,4 L16.3578,4 C18.3661,4 20,5.63391 20,7.64209 L20.0001,16.3579 Z M7.36182,12.00024 C7.36182,14.5576 9.4425,16.6382 12,16.6382 C14.5575,16.6382 16.6381,14.5576 16.6381,12.00024 C16.6381,9.44275 14.5575,7.36206 12,7.36206 C9.4425,7.36206 7.36182,9.44275 7.36182,12.00024 Z M16.4348,5.83411 C16.5833,5.68506 16.7898,5.59998 17,5.59998 C17.2108,5.59998 17.4174,5.68506 17.5658,5.83411 C17.7148,5.98254 17.7999,6.18909 17.7999,6.40002 C17.7999,6.61011 17.7148,6.81665 17.5658,6.96582 C17.4166,7.11414 17.2108,7.19995 17,7.19995 C16.7898,7.19995 16.5833,7.11414 16.4348,6.96582 C16.2858,6.81665 16.2,6.61023 16.2,6.40002 C16.2,6.18909 16.2856,5.98254 16.4348,5.83411 Z M12,15.8397 C9.88269,15.8397 8.16003,14.1173 8.16003,12 C8.16003,9.88257 9.88257,8.16003 12,8.16003 C14.1174,8.16003 15.8401,9.88257 15.8401,12 C15.8401,14.1173 14.1173,15.8397 12,15.8397 Z" id="path0_fill" fill="#484848"></path>
            </g>
        </g>
    </g>
</svg>